<?xml version="1.0" encoding="UTF-8"?>
<!DOCTYPE svg PUBLIC "-//W3C//DTD SVG 1.1//EN" "http://www.w3.org/Graphics/SVG/1.1/DTD/svg11.dtd">
<!-- Creator: CorelDRAW -->
<svg xmlns="http://www.w3.org/2000/svg" xml:space="preserve" width="28.334mm" height="26.3758mm" version="1.1" style="shape-rendering:geometricPrecision; text-rendering:geometricPrecision; image-rendering:optimizeQuality; fill-rule:evenodd; clip-rule:evenodd"
viewBox="0 0 806.42 750.69"
 xmlns:xlink="http://www.w3.org/1999/xlink"
 xmlns:xodm="http://www.corel.com/coreldraw/odm/2003">
 <defs>
  <style type="text/css">
   <![CDATA[
    .fil0 {fill:#3E54FF}
   ]]>
  </style>
 </defs>
 <g id="Katman_x0020_1">
  <metadata id="CorelCorpID_0Corel-Layer"/>
  <g id="_1890328991200">
   <path class="fil0" d="M646.85 189.26c17.87,28.29 -62,44.03 -94.4,35.26 15.11,-33.15 50.11,-36.87 94.4,-35.26zm-135.42 86.99c95.05,21.6 182.44,9.12 159.64,137.07 -18.16,102.01 -86.05,147.04 -182.42,159.1 52.84,27.6 142.36,2.72 186.03,-22.48 147.92,-85.4 162.3,-289.82 87.65,-411.15 -31.4,-51.03 -106.6,-120.81 -161.89,-138.79 9.62,24.59 28.69,39.96 34.54,72.86 20.18,113.66 -154.57,97.84 -213.59,102.79 0.7,50.62 46.49,88.4 90.03,100.61z"/>
   <path class="fil0" d="M500.82 750.68c77.8,0.7 150.1,-32.44 194,-70.76 35.84,-31.28 88.19,-93.18 95.82,-165.07 -13.11,19.96 -20.61,38.32 -35.75,58.51 -42.04,56.03 -103.47,92.75 -183.28,93.62 -109.25,1.2 -192.04,-70.05 -208.9,-164 -13.4,-46.05 0.13,-169.65 -5.81,-227.63 -23.66,-231.31 -360.4,-220.23 -356.87,12.54 0.51,34.45 16.01,95.28 50.3,111.29 -6.67,-84.25 36.01,-121.09 116.44,-99.43 -6.07,-30.92 -28.88,-68.05 -57.55,-72.88 -41.37,-6.99 -58.81,28.93 -69.66,59.83 -14.44,-82.08 76.33,-158.83 144.36,-42.92 60.45,152.83 -6.98,503.42 316.91,506.9z"/>
  </g>
 </g>
</svg>
