<?xml version="1.0" encoding="UTF-8"?>
<!DOCTYPE svg PUBLIC "-//W3C//DTD SVG 1.1//EN" "http://www.w3.org/Graphics/SVG/1.1/DTD/svg11.dtd">
<!-- Creator: CorelDRAW -->
<svg xmlns="http://www.w3.org/2000/svg" xml:space="preserve" width="97.7629mm" height="97.7629mm" version="1.1" style="shape-rendering:geometricPrecision; text-rendering:geometricPrecision; image-rendering:optimizeQuality; fill-rule:evenodd; clip-rule:evenodd"
viewBox="0 0 11096.98 11096.98"
 xmlns:xlink="http://www.w3.org/1999/xlink"
 xmlns:xodm="http://www.corel.com/coreldraw/odm/2003">
 <defs>
  <style type="text/css">
   <![CDATA[
    .fil0 {fill:#3E54FF}
    .fil1 {fill:white}
   ]]>
  </style>
 </defs>
 <g id="Katman_x0020_1">
  <metadata id="CorelCorpID_0Corel-Layer"/>
  <rect class="fil0" x="-0.01" y="-0.01" width="11096.98" height="11096.98"/>
  <g id="_2268869417712">
   <path class="fil1" d="M7424.55 4115.55c137.64,217.81 -477.4,339.06 -726.94,271.55 116.34,-255.24 385.84,-283.89 726.94,-271.55zm-1042.75 669.84c731.95,166.29 1404.86,70.22 1229.3,1055.48 -139.87,785.49 -662.6,1132.28 -1404.68,1225.16 406.87,212.51 1096.19,20.93 1432.45,-173.15 1139.02,-657.58 1249.76,-2231.74 674.95,-3165.97 -241.83,-392.98 -820.89,-930.28 -1246.57,-1068.7 74.08,189.36 220.89,307.72 265.94,561.03 155.39,875.19 -1190.23,753.36 -1644.67,791.46 5.4,389.8 357.97,680.73 693.27,774.69z"/>
   <path class="fil1" d="M6300.1 8438.68c599.12,5.4 1155.8,-249.83 1493.89,-544.91 275.97,-240.87 679.09,-717.48 737.83,-1271.08 -100.99,153.66 -158.67,295.08 -275.29,450.57 -323.73,431.47 -796.78,714.2 -1411.33,720.85 -841.24,9.26 -1478.75,-539.41 -1608.59,-1262.87 -103.21,-354.6 0.96,-1306.39 -44.76,-1752.81 -182.22,-1781.17 -2775.18,-1695.8 -2747.99,96.55 3.96,265.27 123.28,733.69 387.29,856.97 -51.32,-648.7 277.33,-932.4 896.61,-765.62 -46.69,-238.06 -222.34,-523.98 -443.14,-561.21 -318.62,-53.83 -452.89,222.73 -536.42,460.7 -111.23,-632.02 587.74,-1223.04 1111.62,-330.48 465.52,1176.84 -53.74,3876.52 2440.28,3903.33z"/>
  </g>
 </g>
</svg>
