<?xml version="1.0" encoding="UTF-8"?>
<!DOCTYPE svg PUBLIC "-//W3C//DTD SVG 1.1//EN" "http://www.w3.org/Graphics/SVG/1.1/DTD/svg11.dtd">
<!-- Creator: CorelDRAW -->
<svg xmlns="http://www.w3.org/2000/svg" xml:space="preserve" width="109.51mm" height="26.3759mm" version="1.1" style="shape-rendering:geometricPrecision; text-rendering:geometricPrecision; image-rendering:optimizeQuality; fill-rule:evenodd; clip-rule:evenodd"
viewBox="0 0 12046.4 2901.41"
 xmlns:xlink="http://www.w3.org/1999/xlink"
 xmlns:xodm="http://www.corel.com/coreldraw/odm/2003">
 <defs>
  <style type="text/css">
   <![CDATA[
    .fil1 {fill:#3E54FF}
    .fil0 {fill:#3E54FF;fill-rule:nonzero}
   ]]>
  </style>
 </defs>
 <g id="Katman_x0020_1">
  <metadata id="CorelCorpID_0Corel-Layer"/>
  <g id="_2232660994992">
   <path class="fil0" d="M4583.7 22.06c20.94,0 43.19,3.93 66.74,11.78 20.93,-18.32 45.81,-22.9 74.59,-13.74 28.79,9.16 49.72,21.59 62.81,37.29 18.32,20.94 29.44,47.11 33.36,78.52 3.93,31.41 4.58,60.19 1.96,86.36 -5.23,91.6 -29.44,181.89 -72.62,270.87 -43.18,88.98 -88.32,171.42 -135.44,247.32 -52.34,91.6 -110.57,179.27 -174.69,263.02 -64.11,83.74 -131.51,166.19 -202.16,247.32 -81.14,91.6 -165.54,181.24 -253.21,268.91 -87.67,87.67 -178.61,170.77 -272.83,249.28 -28.79,20.93 -56.27,41.88 -82.44,62.81 -26.18,20.93 -52.35,41.88 -78.52,62.81 -7.85,5.24 -15.7,12.43 -23.55,21.59 -7.85,9.15 -17.02,16.36 -27.48,21.59 -13.09,36.63 -25.52,71.96 -37.29,105.99 -11.78,34.02 -24.21,69.36 -37.3,106 -15.7,54.96 -26.82,115.15 -33.36,180.58 -6.55,65.42 -0.66,121.7 17.67,168.8 18.32,47.11 53,77.21 104.03,90.29 51.03,13.09 123.65,-6.55 217.87,-58.88 52.34,-28.79 109.27,-68.7 170.77,-119.74 61.5,-51.03 123,-108.61 184.51,-172.73 61.5,-64.12 120.39,-134.13 176.65,-210.02 56.27,-75.9 104.03,-151.79 143.29,-227.69 34.02,-13.09 61.5,-15.7 82.44,-7.85 20.94,7.85 35.33,31.41 43.19,70.67 -39.26,75.89 -85.05,154.41 -137.4,235.54 -52.34,81.14 -110.56,160.96 -174.68,239.46 -64.12,78.52 -133.48,153.1 -208.07,223.77 -74.58,70.67 -155.06,133.48 -241.42,188.43 -99.45,62.81 -198.91,100.75 -298.35,113.84 -99.45,13.09 -188.43,0.66 -266.95,-37.29 -78.51,-37.95 -141.97,-100.76 -190.39,-188.43 -48.41,-87.67 -70.01,-200.86 -64.77,-339.57 2.62,-86.37 14.39,-172.74 35.33,-259.1 20.93,-86.36 47.76,-170.77 80.48,-253.2 32.7,-82.44 70.01,-162.91 111.87,-241.43 41.88,-78.51 83.76,-153.1 125.62,-223.76 94.22,-159.65 193.01,-318.63 296.39,-476.97 103.38,-158.34 219.18,-304.24 347.42,-437.71 52.34,-54.96 106.65,-106.65 162.91,-155.07 56.27,-48.41 117.12,-90.94 182.55,-127.58 44.48,-28.79 90.94,-53 139.36,-72.62 48.41,-19.62 98.79,-29.45 151.13,-29.45zm-914.68 1558.49c60.19,-54.96 119.08,-112.53 176.65,-172.73 57.59,-60.19 113.85,-121.7 168.81,-184.51 70.67,-83.74 138.7,-170.11 204.13,-259.1 65.43,-88.98 128.24,-179.27 188.43,-270.87 44.5,-65.42 84.4,-131.51 119.74,-198.25 35.32,-66.73 64.77,-138.05 88.32,-213.94 -47.1,44.48 -94.87,88.98 -143.29,133.48 -48.41,44.48 -94.87,91.6 -139.36,141.32 -99.44,125.62 -193.01,254.51 -280.68,386.68 -87.67,132.16 -172.08,267.59 -253.2,406.31l-129.55 231.61zm2528.13 -361.16c-36.64,78.52 -77.86,160.3 -123.65,245.36 -45.81,85.05 -92.26,171.42 -139.36,259.09 -47.11,87.67 -93.57,176.65 -139.36,266.94 -45.81,90.29 -84.4,179.93 -115.81,268.91 -47.1,138.7 -53.65,234.23 -19.62,286.58 34.02,52.34 83.74,61.49 149.17,27.48 54.96,-28.79 111.88,-72.63 170.77,-131.52 58.88,-58.88 116.46,-124.96 172.73,-198.25 56.27,-73.27 109.27,-148.51 158.99,-225.73 49.73,-77.2 92.91,-149.82 129.55,-217.87 36.64,-15.7 65.43,-20.28 86.36,-13.74 20.94,6.55 34.02,32.05 39.26,76.55 -83.74,154.41 -167.49,295.73 -251.25,423.97 -83.74,128.24 -180.58,248.63 -290.49,361.16 -47.11,49.73 -104.03,95.53 -170.77,137.4 -66.74,41.87 -135.44,71.31 -206.1,88.32 -70.65,17.02 -139.36,15.71 -206.09,-3.93 -66.74,-19.62 -123.66,-67.39 -170.77,-143.28 -52.35,-81.14 -79.83,-165.53 -82.45,-253.21 -2.62,-87.67 9.16,-174.68 35.33,-261.06 -60.19,83.76 -124.31,167.5 -192.36,251.25 -68.04,83.74 -138.7,155.07 -211.99,213.95 -73.27,58.88 -145.9,99.44 -217.87,121.7 -71.97,22.24 -140.67,15.05 -206.1,-21.59 -57.58,-34.02 -99.44,-77.21 -125.61,-129.55 -26.18,-52.34 -42.54,-108.61 -49.07,-168.8 -6.55,-60.19 -4.59,-121.7 5.89,-184.51 10.47,-62.81 23.55,-120.39 39.26,-172.74 39.25,-133.47 90.29,-263.66 153.1,-390.6 62.81,-126.93 134.78,-247.98 215.91,-363.13 18.32,-26.17 41.22,-58.22 68.7,-96.18 27.48,-37.95 57.58,-74.59 90.29,-109.93 32.71,-35.32 66.08,-68.04 100.1,-98.13 34.02,-30.1 66.74,-50.38 98.14,-60.85 47.1,-15.7 90.94,-22.24 131.51,-19.62 40.57,2.62 76.55,11.12 107.96,25.52 31.41,14.39 58.88,30.75 82.44,49.06 23.55,18.33 41.88,35.33 54.96,51.04 -39.25,47.1 -81.13,102.06 -125.61,164.87 -44.5,62.81 -90.3,128.9 -137.4,198.25 -47.1,69.36 -92.91,140.02 -137.39,211.99 -44.5,71.97 -86.37,140.67 -125.62,206.1 -99.45,167.5 -159.65,293.77 -180.58,378.83 -20.94,85.05 -18.33,138.05 7.84,158.99 26.17,20.94 69.36,14.4 129.55,-19.62 60.19,-34.02 123,-86.36 188.43,-157.03 49.72,-52.34 96.18,-105.99 139.36,-160.96 43.18,-54.96 87.01,-111.22 131.51,-168.8 99.45,-133.48 189.08,-272.84 268.91,-418.09 79.82,-145.25 165.53,-292.46 257.13,-441.64 23.55,-36.64 47.76,-64.77 72.62,-84.39 24.86,-19.64 59.53,-22.9 104.03,-9.82 120.39,36.64 195.63,74.59 225.73,113.85 30.1,39.25 33.36,85.05 9.81,137.39zm1052.07 533.9c39.26,-41.88 77.21,-92.26 113.85,-151.14 36.63,-58.88 67.39,-117.77 92.25,-176.65 24.86,-58.88 43.19,-113.84 54.96,-164.88 11.78,-51.03 12.43,-89.63 1.97,-115.8l-7.85 -15.71c-36.64,23.55 -71.97,47.76 -105.99,72.62 -34.02,24.86 -65.43,51.69 -94.22,80.48 -94.22,86.36 -175.35,181.89 -243.39,286.58 -52.35,73.27 -100.11,154.41 -143.29,243.39 -43.19,88.98 -75.24,179.27 -96.19,270.87 -31.39,115.15 -34.01,206.09 -7.84,272.83 26.17,66.74 69.35,111.88 129.54,135.44 60.2,23.56 132.17,26.83 215.91,9.81 83.76,-17.01 170.12,-51.68 259.1,-104.03 112.53,-65.42 216.56,-147.87 312.09,-247.31 95.53,-99.45 178.62,-215.91 249.28,-349.39 31.41,-13.09 58.24,-17.01 80.48,-11.78 22.25,5.24 37.3,30.1 45.15,74.59 -78.51,149.17 -169.46,282.65 -272.83,400.42 -103.38,117.77 -221.8,225.07 -355.27,321.9 -154.41,109.93 -306.85,177.96 -457.35,204.14 -150.48,26.17 -280.68,12.43 -390.6,-41.23 -109.93,-53.65 -189.08,-147.87 -237.51,-282.64 -48.41,-134.79 -47.76,-308.17 1.97,-520.16 34.01,-138.7 87.67,-271.52 160.94,-398.45 73.28,-126.93 160.96,-240.12 263.03,-339.57 57.58,-54.97 120.39,-102.73 188.42,-143.29 68.05,-40.57 140.02,-70.01 215.91,-88.33 34.02,-7.85 67.4,-13.08 100.11,-15.7 32.7,-2.62 67.39,-1.31 104.03,3.92 13.08,-7.84 26.82,-13.74 41.22,-17.66 14.39,-3.93 29.44,-8.51 45.15,-13.74 75.89,-13.09 143.94,-5.9 204.13,21.58 60.19,27.48 104.69,68.71 133.48,123.66 23.55,47.1 34.02,102.72 31.41,166.84 -2.62,64.12 -15.05,128.89 -37.3,194.32 -22.24,65.43 -52.99,125.62 -92.25,180.58 -39.26,54.96 -83.74,95.53 -133.48,121.7 -49.72,28.79 -108.61,43.84 -176.65,45.15 -68.05,1.31 -132.17,-9.81 -192.36,-33.36zm2669.45 -675.22c-28.79,39.25 -63.46,90.29 -104.03,153.1 -40.56,62.81 -83.1,130.85 -127.58,204.13 -44.5,73.28 -88.33,149.17 -131.51,227.69 -43.19,78.51 -81.79,153.1 -115.81,223.76 -70.67,146.56 -125.62,269.56 -164.88,369.01 -39.25,99.45 -49.72,163.57 -31.41,192.36 7.85,13.08 21.59,18.98 41.23,17.67 19.62,-1.31 41.22,-5.9 64.77,-13.74 23.55,-7.85 45.15,-17.67 64.77,-29.45 19.64,-11.78 33.37,-20.28 41.22,-25.52 57.59,-36.63 108.62,-79.16 153.1,-127.58 44.5,-48.41 86.37,-98.79 125.62,-151.13 36.64,-49.73 71.97,-102.07 106,-157.03 34.02,-54.96 65.43,-108.62 94.22,-160.96 31.41,-7.85 58.22,-7.85 80.48,0 22.24,7.85 37.29,28.79 45.15,62.81 -36.64,68.05 -71.97,134.79 -106,200.2 -34.02,65.43 -73.27,129.55 -117.77,192.36 -41.88,62.81 -85.71,123 -131.51,180.58 -45.81,57.58 -94.88,112.53 -147.22,164.88 -49.72,49.72 -104.03,93.56 -162.91,131.51 -58.88,37.95 -124.96,55.62 -198.25,53 -73.28,0 -138.7,-20.94 -196.29,-62.81 -57.58,-41.88 -99.44,-96.84 -125.61,-164.88 -13.09,-31.41 -22.25,-66.74 -27.49,-105.99 -41.87,60.19 -86.36,115.15 -133.47,164.87 -47.11,49.73 -100.76,91.6 -160.96,125.62 -83.74,47.11 -171.42,66.74 -263.02,58.88 -91.6,-7.85 -171.43,-43.18 -239.46,-105.99 -65.43,-60.19 -109.93,-131.52 -133.48,-213.95 -23.55,-82.44 -35.33,-165.53 -35.33,-249.28 2.62,-104.69 19.64,-208.06 51.04,-310.13 31.41,-102.07 72.62,-200.2 123.65,-294.42 51.03,-94.22 109.91,-182.55 176.65,-264.98 66.74,-82.44 138.05,-157.68 213.95,-225.73 73.27,-68.05 156.37,-123 249.28,-164.88 92.91,-41.87 189.08,-60.19 288.54,-54.96 96.84,5.24 181.89,34.67 255.17,88.33 73.27,53.65 126.92,124.96 160.94,213.94 31.41,-36.64 67.4,-70.01 107.96,-100.1 40.57,-30.1 83.1,-53 127.59,-68.7 47.1,-18.33 97.48,-26.17 151.13,-23.56 53.65,2.62 97.48,19.64 131.51,51.04zm-1240.51 1075.63c117.77,-83.74 223.77,-191.04 317.98,-321.9 94.21,-130.86 155.71,-269.56 184.51,-416.12 13.08,-54.97 11.77,-109.27 -3.93,-162.91 -15.71,-53.66 -56.27,-85.71 -121.7,-96.19 -52.35,-7.85 -100.76,2.62 -145.26,31.41 -44.48,28.79 -85.05,60.19 -121.7,94.22 -112.53,109.91 -203.47,235.54 -272.83,376.87 -69.36,141.32 -122.36,287.88 -158.99,439.67 -34.02,151.79 -26.83,251.89 21.58,300.32 48.42,48.41 114.5,50.38 198.25,5.89 54.97,-28.79 106.65,-64.12 155.07,-105.99 48.41,-41.88 94.87,-85.06 139.36,-129.55 -36.64,7.85 -73.93,12.43 -111.88,13.74 -37.95,1.31 -64.77,-8.5 -80.48,-29.45zm3242.61 -353.31c81.13,-34.02 123,-13.09 125.62,62.81 -78.52,149.17 -163.57,289.85 -255.17,422.01 -91.6,132.16 -194.98,253.2 -310.13,363.12 -49.72,47.11 -107.3,90.95 -172.73,131.51 -65.43,40.57 -132.17,69.36 -200.22,86.37 -68.04,17.01 -136.08,18.32 -204.13,3.92 -68.05,-14.39 -129.55,-54.3 -184.51,-119.73 -47.1,-52.34 -75.89,-112.53 -86.36,-180.58 -10.47,-68.05 -9.81,-138.71 1.96,-211.99 11.78,-73.28 30.1,-145.26 54.97,-215.91 24.86,-70.67 49.07,-136.1 72.62,-196.29 52.34,-117.77 113.19,-230.96 182.54,-339.57 69.36,-108.62 132.82,-221.8 190.4,-339.57 -75.9,60.19 -157.69,130.85 -245.36,211.99 -87.67,81.13 -161.6,158.33 -221.8,231.61 -78.52,94.22 -153.1,190.39 -223.77,288.54 -70.65,98.14 -140.01,198.25 -208.06,300.32 -34.02,52.34 -66.74,104.03 -98.14,155.06 -31.41,51.03 -61.5,102.72 -90.29,155.06 -15.7,23.56 -35.33,53 -58.88,88.33 -23.55,35.33 -56.27,51.69 -98.14,49.07 -31.41,0 -62.81,-9.16 -94.21,-27.48 -31.41,-18.33 -59.54,-40.57 -84.4,-66.74 -24.86,-26.17 -44.5,-54.31 -58.88,-84.4 -14.4,-30.1 -18.98,-56.92 -13.74,-80.48 41.87,-191.04 113.18,-374.9 213.94,-551.55 100.76,-176.65 203.48,-347.42 308.17,-512.3 44.48,-68.04 87.01,-138.7 127.58,-211.99 40.56,-73.27 85.71,-143.94 135.44,-211.99 23.55,-34.02 54.31,-57.58 92.25,-70.65 37.95,-13.09 90.95,0 159,39.25 31.41,18.33 55.61,35.99 72.62,53 17.01,17.02 25.51,37.95 25.51,62.81 0,24.86 -9.81,55.62 -29.44,92.26 -19.62,36.63 -49.07,82.44 -88.33,137.39 -36.64,49.72 -75.24,109.91 -115.8,180.58 -40.57,70.67 -75.24,134.79 -104.04,192.36 41.88,-47.11 92.26,-103.38 151.14,-168.81 58.88,-65.43 121.05,-130.85 186.47,-196.28 65.43,-65.43 131.52,-125.62 198.25,-180.58 66.74,-54.97 128.9,-96.84 186.48,-125.62 70.65,-36.64 153.75,-49.73 249.28,-39.26 95.53,10.47 181.24,52.34 257.13,125.62 20.93,20.93 30.1,38.6 27.48,53 -2.62,14.39 -10.46,34.67 -23.55,60.84 -23.55,54.96 -51.03,109.93 -82.44,164.88 -31.41,57.58 -64.12,114.5 -98.14,170.77 -34.02,56.27 -66.74,114.49 -98.14,174.68 -44.48,81.14 -92.25,166.84 -143.29,257.14 -51.03,90.29 -94.87,179.92 -131.51,268.9 -39.26,107.31 -50.38,185.82 -33.36,235.54 17.01,49.73 51.03,73.94 102.06,72.63 51.04,-1.31 114.5,-26.83 190.4,-76.55 75.89,-49.73 153.1,-121.7 231.61,-215.91 54.96,-68.05 108.61,-140.02 160.96,-215.91 52.34,-75.9 103.37,-159.65 153.1,-251.25z"/>
   <g>
    <path class="fil1" d="M2500.05 731.48c69.08,109.33 -239.62,170.18 -364.87,136.29 58.39,-128.11 193.66,-142.49 364.87,-136.29zm-523.38 336.21c367.38,83.47 705.13,35.24 617.01,529.77 -70.2,394.26 -332.57,568.32 -705.04,614.94 204.22,106.67 550.2,10.51 718.99,-86.9 571.69,-330.06 627.28,-1120.17 338.76,-1589.08 -121.38,-197.25 -412.03,-466.93 -625.68,-536.4 37.18,95.04 110.87,154.44 133.49,281.58 77.99,439.28 -597.41,378.13 -825.5,397.26 2.71,195.65 179.67,341.68 347.97,388.84z"/>
    <path class="fil1" d="M1935.66 2901.37c300.71,2.72 580.12,-125.39 749.82,-273.5 138.52,-120.9 340.85,-360.13 370.33,-637.99 -50.69,77.13 -79.64,148.11 -138.17,226.15 -162.48,216.57 -399.92,358.48 -708.38,361.82 -422.24,4.65 -742.23,-270.75 -807.4,-633.87 -51.8,-177.98 0.48,-655.7 -22.46,-879.78 -91.46,-894.01 -1392.94,-851.17 -1379.29,48.47 1.98,133.14 61.88,368.26 194.4,430.13 -25.76,-325.61 139.2,-467.99 450.03,-384.28 -23.44,-119.5 -111.61,-263 -222.44,-281.69 -159.91,-27.02 -227.31,111.8 -269.24,231.24 -55.82,-317.23 295,-613.87 557.95,-165.87 233.66,590.68 -26.97,1945.72 1224.84,1959.18z"/>
   </g>
  </g>
 </g>
</svg>
